<svg xmlns="http://www.w3.org/2000/svg" viewBox="0 0 512 512" width="512" height="512"><metadata><rdf:RDF xmlns:rdf="http://www.w3.org/1999/02/22-rdf-syntax-ns#" xmlns:dc="http://purl.org/dc/elements/1.1/"><rdf:Description><dc:creator>RealFaviconGenerator</dc:creator><dc:source>https://realfavicongenerator.net</dc:source></rdf:Description></rdf:RDF></metadata><rect width="512" height="512" rx="112" fill="#0f0f0f"></rect><rect x="30" y="30" width="452" height="452" rx="90" fill="none" stroke="#c9a84c" stroke-width="2" opacity="0.35"></rect><circle cx="148" cy="240" r="82" fill="none" stroke="#c9a84c" stroke-width="13"></circle><circle cx="148" cy="240" r="13" fill="#c9a84c"></circle><line x1="148" y1="158" x2="148" y2="322" stroke="#c9a84c" stroke-width="5" opacity="0.5"></line><line x1="66" y1="240" x2="230" y2="240" stroke="#c9a84c" stroke-width="5" opacity="0.5"></line><line x1="90" y1="182" x2="206" y2="298" stroke="#c9a84c" stroke-width="4" opacity="0.4"></line><line x1="206" y1="182" x2="90" y2="298" stroke="#c9a84c" stroke-width="4" opacity="0.4"></line><circle cx="364" cy="240" r="82" fill="none" stroke="#c9a84c" stroke-width="13"></circle><circle cx="364" cy="240" r="13" fill="#c9a84c"></circle><line x1="364" y1="158" x2="364" y2="322" stroke="#c9a84c" stroke-width="5" opacity="0.5"></line><line x1="282" y1="240" x2="446" y2="240" stroke="#c9a84c" stroke-width="5" opacity="0.5"></line><line x1="306" y1="182" x2="422" y2="298" stroke="#c9a84c" stroke-width="4" opacity="0.4"></line><line x1="422" y1="182" x2="306" y2="298" stroke="#c9a84c" stroke-width="4" opacity="0.4"></line><line x1="148" y1="240" x2="256" y2="240" stroke="#e6c870" stroke-width="11" stroke-linecap="round"></line><line x1="256" y1="240" x2="236" y2="152" stroke="#e6c870" stroke-width="11" stroke-linecap="round"></line><line x1="236" y1="152" x2="296" y2="152" stroke="#e6c870" stroke-width="11" stroke-linecap="round"></line><line x1="296" y1="152" x2="256" y2="240" stroke="#e6c870" stroke-width="11" stroke-linecap="round"></line><line x1="256" y1="240" x2="364" y2="240" stroke="#e6c870" stroke-width="11" stroke-linecap="round"></line><line x1="236" y1="152" x2="364" y2="240" stroke="#e6c870" stroke-width="8" stroke-linecap="round"></line><line x1="296" y1="152" x2="148" y2="240" stroke="#e6c870" stroke-width="8" stroke-linecap="round"></line><line x1="296" y1="152" x2="310" y2="128" stroke="#e6c870" stroke-width="8" stroke-linecap="round"></line><line x1="306" y1="128" x2="338" y2="134" stroke="#e6c870" stroke-width="9" stroke-linecap="round"></line><line x1="236" y1="152" x2="226" y2="126" stroke="#e6c870" stroke-width="8" stroke-linecap="round"></line><line x1="206" y1="122" x2="248" y2="122" stroke="#e6c870" stroke-width="11" stroke-linecap="round"></line><rect x="0" y="388" width="512" height="124" rx="0" fill="#c9a84c"></rect><rect x="0" y="388" width="512" height="124" rx="112" fill="#c9a84c"></rect><rect x="0" y="400" width="512" height="112" fill="#c9a84c"></rect><text x="256" y="438" text-anchor="middle" font-family="Georgia, 'Times New Roman', serif" font-size="52" font-weight="700" fill="#0f0f0f" letter-spacing="6">CYCLE LONDON</text><text x="256" y="490" text-anchor="middle" font-family="Georgia, 'Times New Roman', serif" font-size="40" font-weight="400" fill="#1a0f00" letter-spacing="5">WITH JONAH</text></svg>